<svg width="40" height="40" viewBox="0 0 120 120" fill="none" xmlns="http://www.w3.org/2000/svg">
<path d="M119.846 60C119.846 93.1371 93.0175 120 59.923 120C26.8284 120 0 93.1371 0 60C0 26.8629 26.8284 0 59.923 0C93.0175 0 119.846 26.8629 119.846 60Z" fill="#18181A"/>
<path d="M29.0566 30.7646V66.2875C28.949 69.3022 29.4808 72.3055 30.617 75.1C35.5691 87.4875 51.242 96.2458 63.4795 101V94.775C48.1295 88.7667 40.6982 80.9375 37.6857 75.2958C36.133 72.6231 35.3211 69.5847 35.3337 66.4938V34.3333L63.4795 26.2083V21L31.5503 30.1L29.0566 30.7646Z" fill="#FEBA11"/>
<path d="M64.3962 92.9625C66.3545 92.0014 68.1774 91.0354 69.8649 90.0646L70.0587 73.4479V30.7396L64.4024 29.0188L64.3962 92.9625Z" fill="#FEBA11"/>
<path d="M75.2837 85.7083C77.3166 84.4483 79.2116 82.9784 80.9378 81.3229V33.1437L75.2837 31.4167V85.7083Z" fill="#FEBA11"/>
<path d="M86.0899 35.0896L86.2482 59.9896V75.9125L86.4045 75.7354C86.7607 75.2708 87.092 74.8146 87.4024 74.3688C89.6188 71.5074 91.0597 68.1226 91.5857 64.5417V60.2875L91.7441 36.8104L86.0899 35.0896Z" fill="#FEBA11"/>
</svg>
